<?xml version="1.0" encoding="UTF-8"?>
<svg xmlns="http://www.w3.org/2000/svg" version="1.1" xmlns:xlink="http://www.w3.org/1999/xlink" viewBox="0 0 600 1000">
  <!-- Generator: Adobe Illustrator 29.0.1, SVG Export Plug-In . SVG Version: 2.1.0 Build 192)  -->
  <defs>
    <style>
      .st0 {
        font-size: 21px;
      }

      .st0, .st1 {
        font-family: Oswald-Medium, Oswald;
        font-weight: 500;
      }

      .st0, .st1, .st2, .st3 {
        isolation: isolate;
      }

      .st1 {
        font-size: 36px;
      }

      .st4 {
        fill: none;
      }

      .st5 {
        clip-path: url(#clippath-1);
      }

      .st6 {
        fill: url(#Degradado_sin_nombre);
      }

      .st7 {
        mix-blend-mode: luminosity;
      }

      .st8 {
        clip-path: url(#clippath);
      }

      .st3 {
        font-family: Oswald-Bold, Oswald;
        font-size: 28px;
        font-weight: 700;
      }
    </style>
    <linearGradient id="Degradado_sin_nombre" data-name="Degradado sin nombre" x1="-88.3" y1="113.7" x2="688.3" y2="890.3" gradientTransform="translate(0 1002) scale(1 -1)" gradientUnits="userSpaceOnUse">
      <stop offset="0" stop-color="#00fff2"/>
      <stop offset=".3" stop-color="#00ffef"/>
      <stop offset=".5" stop-color="#02ffe6"/>
      <stop offset=".6" stop-color="#06ffd8"/>
      <stop offset=".7" stop-color="#0bffc3"/>
      <stop offset=".9" stop-color="#12ffa9"/>
      <stop offset="1" stop-color="#1aff88"/>
      <stop offset="1" stop-color="#1dff7d"/>
    </linearGradient>
    <clipPath id="clippath">
      <path class="st4" d="M560,800c0-22.1,17.9-40,40-40V40c0-22.1-17.9-40-40-40H40C17.9,0,0,17.9,0,40v720.7c18.6,3.4,32.7,19.7,32.7,39.3s-14.1,35.9-32.7,39.3v120.7c0,22.1,17.9,40,40,40h520c22.1,0,40-17.9,40-40v-120c-22.1,0-40-17.9-40-40ZM64.5,801.6c0,.5-.3,1-.5,1.5s-.4,1-.7,1.4c-.3.4-.6.9-1,1.2-.4.4-.8.7-1.2,1-.4.3-.9.5-1.4.7s-1,.4-1.5.5-1,.2-1.6.2-1,0-1.6-.2c-.5,0-1-.2-1.5-.5-.5-.2-.9-.5-1.4-.7-.4-.3-.8-.6-1.2-1-1.5-1.5-2.3-3.6-2.3-5.7s0-1,.2-1.6c0-.5.3-1,.5-1.5s.4-.9.7-1.4c.3-.4.6-.8,1-1.2s.8-.7,1.2-1,.9-.5,1.4-.7,1-.3,1.5-.4c1-.2,2.1-.2,3.1,0,.5,0,1,.2,1.5.4s.9.5,1.4.7c.4.3.8.6,1.2,1,.4.4.7.8,1,1.2s.5.9.7,1.4.4,1,.5,1.5c0,.5.2,1,.2,1.6s0,1-.2,1.6h0ZM88.6,808c-4.4,0-8-3.6-8-8s3.6-8,8-8,8,3.6,8,8-3.6,8-8,8ZM120.6,808c-4.4,0-8-3.6-8-8s3.6-8,8-8,8,3.6,8,8-3.6,8-8,8ZM152.5,808c-4.4,0-8-3.6-8-8s3.6-8,8-8,8,3.6,8,8-3.6,8-8,8ZM184.5,808c-4.4,0-8-3.6-8-8s3.6-8,8-8,8,3.6,8,8-3.6,8-8,8ZM216.4,808c-4.4,0-8-3.6-8-8s3.6-8,8-8,8,3.6,8,8-3.6,8-8,8ZM248.4,808c-4.4,0-8-3.6-8-8s3.6-8,8-8,8,3.6,8,8-3.6,8-8,8ZM280.4,808c-4.4,0-8-3.6-8-8s3.6-8,8-8,8,3.6,8,8-3.6,8-8,8ZM312.3,808c-4.4,0-8-3.6-8-8s3.6-8,8-8,8,3.6,8,8-3.6,8-8,8ZM344.3,808c-4.4,0-8-3.6-8-8s3.6-8,8-8,8,3.6,8,8-3.6,8-8,8ZM376.2,808c-4.4,0-8-3.6-8-8s3.6-8,8-8,8,3.6,8,8-3.6,8-8,8ZM408.2,808c-4.4,0-8-3.6-8-8s3.6-8,8-8,8,3.6,8,8-3.6,8-8,8ZM440.1,808c-4.4,0-8-3.6-8-8s3.6-8,8-8,8,3.6,8,8-3.6,8-8,8ZM472.1,808c-4.4,0-8-3.6-8-8s3.6-8,8-8,8,3.6,8,8-3.6,8-8,8ZM504,808c-4.4,0-8-3.6-8-8s3.6-8,8-8,8,3.6,8,8-3.6,8-8,8ZM543.8,801.6c0,.5-.2,1-.5,1.5-.2.5-.5,1-.7,1.4-.3.4-.6.9-1,1.2s-.8.7-1.2,1c-.4.3-.9.5-1.4.7s-1,.4-1.5.5-1,.2-1.6.2-1,0-1.6-.2c-.5,0-1-.2-1.5-.5-.5-.2-.9-.5-1.4-.7-.4-.3-.8-.6-1.2-1s-.7-.8-1-1.2-.5-.9-.7-1.4-.3-1-.4-1.5-.2-1-.2-1.6,0-1,.2-1.6c0-.5.2-1,.4-1.5.2-.5.5-.9.7-1.4.3-.4.6-.8,1-1.2s.8-.7,1.2-1c.4-.3.9-.5,1.4-.7s1-.3,1.5-.4c1-.2,2.1-.2,3.1,0,.5,0,1,.2,1.5.4s1,.5,1.4.7c.4.3.9.6,1.2,1s.7.8,1,1.2.5.9.7,1.4.4,1,.5,1.5.2,1,.2,1.6,0,1-.2,1.6h0Z"/>
    </clipPath>
    <clipPath id="clippath-1">
      <path class="st4" d="M503.9-154.8L-218,52.2c-51.1,14.6-85.4,52-76.5,83.1L-9.8,1128.7c8.9,31.1,57.9,44.6,108.9,30l722-206.9c51.1-14.6,85.4-52,76.5-83.1L612.8-124.8c-8.9-31.1-57.9-44.6-108.9-30Z"/>
    </clipPath>
  </defs>
  <g class="st2">
    <g id="Capa_1">
      <g>
        <path class="st6" d="M560,800c0-22.1,17.9-40,40-40V40c0-22.1-17.9-40-40-40H40C17.9,0,0,17.9,0,40v720.7c18.6,3.4,32.7,19.7,32.7,39.3s-14.1,35.9-32.7,39.3v120.7c0,22.1,17.9,40,40,40h520c22.1,0,40-17.9,40-40v-120c-22.1,0-40-17.9-40-40ZM64.5,801.6c0,.5-.3,1-.5,1.5s-.4,1-.7,1.4c-.3.4-.6.9-1,1.2-.4.4-.8.7-1.2,1-.4.3-.9.5-1.4.7s-1,.4-1.5.5-1,.2-1.6.2-1,0-1.6-.2c-.5,0-1-.2-1.5-.5-.5-.2-.9-.5-1.4-.7-.4-.3-.8-.6-1.2-1-1.5-1.5-2.3-3.6-2.3-5.7s0-1,.2-1.6c0-.5.3-1,.5-1.5s.4-.9.7-1.4c.3-.4.6-.8,1-1.2s.8-.7,1.2-1,.9-.5,1.4-.7,1-.3,1.5-.4c1-.2,2.1-.2,3.1,0,.5,0,1,.2,1.5.4s.9.5,1.4.7c.4.3.8.6,1.2,1,.4.4.7.8,1,1.2s.5.9.7,1.4.4,1,.5,1.5c0,.5.2,1,.2,1.6s0,1-.2,1.6h0ZM88.6,808c-4.4,0-8-3.6-8-8s3.6-8,8-8,8,3.6,8,8-3.6,8-8,8ZM120.6,808c-4.4,0-8-3.6-8-8s3.6-8,8-8,8,3.6,8,8-3.6,8-8,8ZM152.5,808c-4.4,0-8-3.6-8-8s3.6-8,8-8,8,3.6,8,8-3.6,8-8,8ZM184.5,808c-4.4,0-8-3.6-8-8s3.6-8,8-8,8,3.6,8,8-3.6,8-8,8ZM216.4,808c-4.4,0-8-3.6-8-8s3.6-8,8-8,8,3.6,8,8-3.6,8-8,8ZM248.4,808c-4.4,0-8-3.6-8-8s3.6-8,8-8,8,3.6,8,8-3.6,8-8,8ZM280.4,808c-4.4,0-8-3.6-8-8s3.6-8,8-8,8,3.6,8,8-3.6,8-8,8ZM312.3,808c-4.4,0-8-3.6-8-8s3.6-8,8-8,8,3.6,8,8-3.6,8-8,8ZM344.3,808c-4.4,0-8-3.6-8-8s3.6-8,8-8,8,3.6,8,8-3.6,8-8,8ZM376.2,808c-4.4,0-8-3.6-8-8s3.6-8,8-8,8,3.6,8,8-3.6,8-8,8ZM408.2,808c-4.4,0-8-3.6-8-8s3.6-8,8-8,8,3.6,8,8-3.6,8-8,8ZM440.1,808c-4.4,0-8-3.6-8-8s3.6-8,8-8,8,3.6,8,8-3.6,8-8,8ZM472.1,808c-4.4,0-8-3.6-8-8s3.6-8,8-8,8,3.6,8,8-3.6,8-8,8ZM504,808c-4.4,0-8-3.6-8-8s3.6-8,8-8,8,3.6,8,8-3.6,8-8,8ZM543.8,801.6c0,.5-.2,1-.5,1.5-.2.5-.5,1-.7,1.4-.3.4-.6.9-1,1.2s-.8.7-1.2,1c-.4.3-.9.5-1.4.7s-1,.4-1.5.5-1,.2-1.6.2-1,0-1.6-.2c-.5,0-1-.2-1.5-.5-.5-.2-.9-.5-1.4-.7-.4-.3-.8-.6-1.2-1s-.7-.8-1-1.2-.5-.9-.7-1.4-.3-1-.4-1.5-.2-1-.2-1.6,0-1,.2-1.6c0-.5.2-1,.4-1.5.2-.5.5-.9.7-1.4.3-.4.6-.8,1-1.2s.8-.7,1.2-1c.4-.3.9-.5,1.4-.7s1-.3,1.5-.4c1-.2,2.1-.2,3.1,0,.5,0,1,.2,1.5.4s1,.5,1.4.7c.4.3.9.6,1.2,1s.7.8,1,1.2.5.9.7,1.4.4,1,.5,1.5.2,1,.2,1.6,0,1-.2,1.6h0Z"/>
        <g class="st7">
          <g class="st8">
            <g class="st5">
              <image class="st2" width="1561" height="1870" transform="translate(-479 -433)" xlink:href="coupon-1.png"/>
            </g>
          </g>
        </g>
        <g>
          <g>
            <path d="M124.3,364.9v-31.7l45.7-70.9c.7-1.1,2.2-3.3,4.5-6.7,2.3-3.4,3.9-5.9,5-7.7,1.1-1.7,2.5-4.2,4.3-7.4s3.2-6,4.1-8.3,1.7-4.9,2.5-7.7c.8-2.9,1.1-5.5,1.1-8.1,0-5.3-1.3-9.1-4-11.4-1.9-1.6-4.1-2.4-6.7-2.4s-2.3.2-3.4.5c-3.6.9-6.4,3.1-8.2,6.7-1.8,3.6-2.7,9.5-2.7,17.8v10.5h-43.2v-11.4c0-9,1.1-17.1,3.3-24.4,2.2-7.3,5.5-13.9,9.9-19.6,4.4-5.7,10.4-10.2,17.9-13.4s16.2-4.8,26.1-4.8c18.1,0,31.8,4.6,41.3,13.8s14.2,22.1,14.2,38.9,0,5.3-.4,8c-.3,2.6-.9,5.3-1.7,8.1-.9,2.8-1.6,5.1-2.1,7.1-.6,1.9-1.6,4.4-3.3,7.5-1.6,3-2.8,5.3-3.4,6.7-.6,1.4-2.1,3.7-4.3,7.1-2.2,3.3-3.6,5.4-4.1,6.3s-2.1,3.2-4.7,6.9c-2.6,3.7-4.1,5.8-4.4,6.3l-33.4,49.3h56.1v34.7h-105.9v-.3Z"/>
            <path d="M310.8,368.9c-8.9,0-16.5-1-22.9-3.1s-11.5-4.8-15.3-8.1c-3.8-3.4-6.8-7.8-9-13.4s-3.7-11.3-4.4-17c-.7-5.8-1.1-12.7-1.1-20.8h43.1c0,8.3.4,14.6,1.1,18.8.8,4.2,2,7.1,3.7,8.8,1.6,1.4,3.8,2.1,6.7,2.1h1.3c4.7-.3,7.6-3.3,8.7-8.9s1.7-15.7,1.7-30.5-.2-8.9-.5-12.4c-.4-3.5-1-6.8-1.9-9.9s-2.3-5.4-4.1-7.1c-1.8-1.6-4.1-2.4-6.8-2.4-3.9,0-6.9,1.4-9.1,4.3s-3.7,7.6-4.5,14.2h-39l4.5-115.7h94.2v36.1h-58.8l-2.5,36.7c1.3-1.8,4.1-3.6,8.4-5.2,4.4-1.7,9.1-2.8,14.3-3.4,2.3-.3,4.5-.5,6.7-.5,11.7,0,21.1,4.8,28.3,14.3,8.4,11.2,12.6,28,12.6,50.4s-.2,12.4-.5,17.5-1,10.3-2,15.5-2.3,9.7-4,13.5-3.9,7.4-6.7,10.9c-2.8,3.4-6.1,6.2-9.9,8.4-3.8,2.1-8.5,3.8-13.8,5-5.4,1.2-11.5,1.8-18.3,1.8h-.2Z"/>
          </g>
          <g>
            <path d="M211.4,584.2c-8,2.9-17.6,4.3-28.8,4.3s-20.8-1.4-28.8-4.3c-7.9-2.9-14.2-7.2-18.9-13-4.7-5.7-8-12.5-10.1-20.3s-3.1-17-3.1-27.6v-72.7c0-10.6,1-19.8,3.1-27.6,2.1-7.8,5.4-14.6,10.1-20.3,4.7-5.7,11-10.1,18.9-13s17.5-4.3,28.8-4.3,20.9,1.4,28.8,4.3c8,2.9,14.3,7.2,19,13,4.7,5.7,8.1,12.5,10.2,20.3s3.1,17,3.1,27.6v72.7c0,10.6-1.1,19.8-3.1,27.6-2.1,7.8-5.5,14.6-10.2,20.3s-11,10.1-19,13ZM182.6,555.2c2.6,0,4.8-.6,6.4-1.7,1.7-1.1,2.9-2.8,3.6-5s1.2-4.2,1.4-6.1c.2-1.8.3-4.1.3-6.8v-97.3c0-2.7,0-4.9-.3-6.8-.2-1.8-.7-3.8-1.4-6-.7-2.2-1.9-3.8-3.6-5-1.7-1.1-3.8-1.7-6.4-1.7s-4,.4-5.5,1.3-2.6,1.9-3.4,3-1.3,2.7-1.7,4.8c-.4,2-.6,3.7-.7,5v108c0,1.3.3,3,.7,5,.4,2,1,3.6,1.7,4.8.8,1.1,1.9,2.2,3.4,3.1,1.5.9,3.3,1.4,5.5,1.4Z"/>
            <path d="M269.9,585.5v-197h88v32.3h-39.8v45h35.9v33.5h-35.9v86.1h-48.2Z"/>
            <path d="M378.6,585.5v-197h88v32.3h-39.8v45h35.9v33.5h-35.9v86.1h-48.2Z"/>
          </g>
          <path d="M397.4,218.3c-7.8,0-13.3-1.9-16.6-5.8-3.3-3.9-4.9-10-4.9-18.4v-3.1c0-8.5,1.6-14.6,4.8-18.2,3.2-3.6,8.8-5.4,16.7-5.4s13.6,1.8,16.8,5.4c3.3,3.6,4.9,9.6,4.9,18.1v3.2c0,8.4-1.7,14.5-5,18.4s-8.9,5.8-16.7,5.8h0ZM395,206c.7.2,1.5.3,2.4.3s1.7-.1,2.4-.3c.7-.2,1.2-.6,1.6-1.1s.8-1.1,1-1.7c.2-.6.4-1.5.6-2.6,0-1.1.2-2.2.2-3.2v-9.6c0-.8,0-1.8-.2-3,0-1.2-.3-2-.5-2.4-.2-.5-.6-.9-1-1.5-.4-.5-1-.8-1.7-1s-1.5-.2-2.5-.2-1.8,0-2.4.2c-.7.2-1.2.5-1.6,1s-.8,1-1,1.5-.4,1.3-.5,2.4c0,1.1-.2,2.1-.2,3v9.7c0,1,0,2.1.2,3.2,0,1.1.3,2,.5,2.6s.6,1.2,1,1.7c.4.6,1,1,1.6,1.2v-.2ZM408.1,255.3l27.8-87.9h9.8l-27.9,87.9h-9.8,0ZM473.2,249.5c-3.4,3.9-8.9,5.8-16.7,5.8s-13.3-1.9-16.6-5.8c-3.3-3.9-4.9-10-4.9-18.4v-3.1c0-8.5,1.6-14.6,4.8-18.2,3.2-3.6,8.8-5.4,16.7-5.4s13.5,1.8,16.8,5.4c3.3,3.6,4.9,9.6,4.9,18.1v3.2c0,8.4-1.7,14.5-5,18.4h0ZM454.1,243c.7.2,1.5.3,2.4.3s1.7-.1,2.4-.3,1.2-.6,1.6-1.2c.4-.6.8-1.1,1-1.7.2-.6.4-1.4.5-2.6,0-1.1.2-2.2.2-3.2v-10.8c0-.9,0-1.6-.2-2,0-.4-.2-.9-.3-1.6,0-.6-.3-1.1-.5-1.3s-.5-.5-.7-.9c-.3-.4-.6-.6-1-.7-.4-.1-.8-.2-1.4-.3-.5-.1-1.1-.2-1.7-.2-1,0-1.8,0-2.4.2-.7.2-1.2.5-1.7,1-.4.5-.8,1-1,1.5s-.4,1.3-.5,2.4c0,1.1-.2,2.1-.2,3v9.6c0,1,0,2.1.2,3.2,0,1.1.3,2,.6,2.6.2.6.6,1.2,1,1.7s1,.9,1.6,1.1v.2Z"/>
        </g>
        <g class="st2">
          <text class="st3" transform="translate(36.3 962.8)"><tspan x="0" y="0">732AC2F4-A90C-4C1C-93AD-837D5DD02B46</tspan></text>
        </g>
        <g class="st2">
          <text class="st0" transform="translate(194.7 719.2)"><tspan x="0" y="0">VALID UNTIL: 12/31/2025</tspan></text>
        </g>
        <g class="st2">
          <text class="st1" transform="translate(84.5 638.1)"><tspan x="0" y="0">ON YOUR NEXT PROJECT WITH</tspan></text>
          <text class="st1" transform="translate(147 674.1)"><tspan x="0" y="0">DYNAMIC SOLUTIONS</tspan></text>
        </g>
        <g>
          <rect x="48.8" y="846.9" width="2.8" height="81.3"/>
          <rect x="58.2" y="846.9" width="1.4" height="81.3"/>
          <rect x="62.6" y="846.9" width="1.4" height="81.3"/>
          <rect x="45.1" y="846.9" width="1.1" height="81.3"/>
          <rect x="40.9" y="846.9" width="1.1" height="81.3"/>
          <rect x="69.4" y="846.9" width="1.4" height="81.3"/>
          <rect x="344.2" y="846.9" width="1.4" height="81.3"/>
          <rect x="453.8" y="846.9" width="1.4" height="81.3"/>
          <rect x="313.1" y="846.9" width="1.4" height="81.3"/>
          <rect x="319.9" y="846.9" width="1.4" height="81.3"/>
          <rect x="326" y="846.9" width=".6" height="81.3"/>
          <rect x="282.4" y="846.9" width="1.4" height="81.3"/>
          <rect x="289.2" y="846.9" width="1.4" height="81.3"/>
          <rect x="296.9" y="846.9" width=".6" height="81.3"/>
          <rect x="89.8" y="846.9" width="2.8" height="81.3"/>
          <rect x="78.9" y="846.9" width="5" height="81.3"/>
          <rect x="134" y="846.9" width="2.8" height="81.3"/>
          <rect x="165.4" y="846.9" width="5" height="81.3"/>
          <rect x="242.7" y="846.9" width="5.6" height="81.3"/>
          <rect x="272.8" y="846.9" width="2.8" height="81.3"/>
          <rect x="263.8" y="846.9" width=".8" height="81.3"/>
          <rect x="254.4" y="846.9" width=".8" height="81.3"/>
          <rect x="110.4" y="846.9" width="1.4" height="81.3"/>
          <rect x="123.8" y="846.9" width=".8" height="81.3"/>
          <rect x="117.2" y="846.9" width=".8" height="81.3"/>
          <rect x="149.3" y="846.9" width=".8" height="81.3"/>
          <rect x="156.4" y="846.9" width="1.4" height="81.3"/>
          <rect x="172.8" y="846.9" width=".8" height="81.3"/>
          <rect x="176.2" y="846.9" width="1.4" height="81.3"/>
          <rect x="142.7" y="846.9" width=".8" height="81.3"/>
          <rect x="127.2" y="846.9" width="2.8" height="81.3"/>
          <rect x="103.5" y="846.9" width="1.4" height="81.3"/>
          <rect x="97.3" y="846.9" width="1.9" height="81.3"/>
          <rect x="304.1" y="846.9" width="2.8" height="81.3"/>
          <rect x="189.2" y="846.9" width="1.4" height="81.3"/>
          <rect x="196" y="846.9" width="1.4" height="81.3"/>
          <rect x="212.3" y="846.9" width="2.5" height="81.3"/>
          <rect x="221.6" y="846.9" width="2.5" height="81.3"/>
          <rect x="217.5" y="846.9" width="1.4" height="81.3"/>
          <rect x="202.1" y="846.9" width=".6" height="81.3"/>
          <rect x="229.2" y="846.9" width=".6" height="81.3"/>
          <rect x="233.9" y="846.9" width=".6" height="81.3"/>
          <rect x="257.7" y="846.9" width=".6" height="81.3"/>
          <rect x="267.7" y="846.9" width="1.4" height="81.3"/>
          <rect x="180.2" y="846.9" width="2.8" height="81.3"/>
          <rect x="332.5" y="846.9" width="2.8" height="81.3"/>
          <rect x="354.5" y="846.9" width="2.8" height="81.3"/>
          <rect x="348.1" y="846.9" width="2.8" height="81.3"/>
          <rect x="364.7" y="846.9" width=".8" height="81.3"/>
          <rect x="369.1" y="846.9" width=".8" height="81.3"/>
          <rect x="373.5" y="846.9" width="2.8" height="81.3"/>
          <rect x="382.9" y="846.9" width="1.4" height="81.3"/>
          <rect x="394.1" y="846.9" width="1.4" height="81.3"/>
          <rect x="414.5" y="846.9" width="2.8" height="81.3"/>
          <rect x="403.5" y="846.9" width="5" height="81.3"/>
          <rect x="458.7" y="846.9" width="2.8" height="81.3"/>
          <rect x="490.1" y="846.9" width="5" height="81.3"/>
          <rect x="435" y="846.9" width="1.4" height="81.3"/>
          <rect x="448.4" y="846.9" width=".8" height="81.3"/>
          <rect x="441.9" y="846.9" width=".8" height="81.3"/>
          <rect x="474" y="846.9" width=".8" height="81.3"/>
          <rect x="486.8" y="846.9" width=".8" height="81.3"/>
          <rect x="497.8" y="846.9" width=".8" height="81.3"/>
          <rect x="481.1" y="846.9" width="1.4" height="81.3"/>
          <rect x="467.4" y="846.9" width=".8" height="81.3"/>
          <rect x="428.2" y="846.9" width="1.4" height="81.3"/>
          <rect x="422" y="846.9" width="1.9" height="81.3"/>
          <rect x="513.9" y="846.9" width="1.4" height="81.3"/>
          <rect x="520.7" y="846.9" width="1.4" height="81.3"/>
          <rect x="537" y="846.9" width="2.5" height="81.3"/>
          <rect x="545.1" y="846.9" width="5" height="81.3"/>
          <rect x="531.9" y="846.9" width="1.4" height="81.3"/>
          <rect x="526.8" y="846.9" width=".6" height="81.3"/>
          <rect x="502" y="846.9" width=".6" height="81.3"/>
          <rect x="553.9" y="846.9" width=".6" height="81.3"/>
          <rect x="558.6" y="846.9" width=".6" height="81.3"/>
          <rect x="504.9" y="846.9" width="2.8" height="81.3"/>
        </g>
      </g>
    </g>
  </g>
</svg>